<?xml version="1.0" encoding="utf-8"?>
<!-- Generator: Adobe Illustrator 16.0.0, SVG Export Plug-In . SVG Version: 6.00 Build 0)  -->
<!DOCTYPE svg PUBLIC "-//W3C//DTD SVG 1.1//EN" "http://www.w3.org/Graphics/SVG/1.1/DTD/svg11.dtd">
<svg version="1.1" id="Layer_1" xmlns="http://www.w3.org/2000/svg" xmlns:xlink="http://www.w3.org/1999/xlink" x="0px" y="0px"
	 width="287.502px" height="68.449px" viewBox="0 0 287.502 68.449" enable-background="new 0 0 287.502 68.449"
	 xml:space="preserve">
<g>
	<path fill="#FFFFFF" d="M35.452,1.534C32.49,0.267,28.948,0,26.498,0C11.64,0,0,11.568,0,26.335c0,7.079,2.688,13.567,7.568,18.271
		c4.741,4.568,11.116,7.084,17.95,7.084c9.106,0,16.269-4.329,19.329-8.62c0.917-1.285,0.618-3.071-0.668-3.988
		c-1.285-0.916-3.07-0.616-3.987,0.668c-1.535,2.152-6.577,6.223-14.674,6.223c-11.288,0-19.8-8.442-19.8-19.637
		c0-11.561,9.128-20.616,20.78-20.616c2.707,0,5.088,0.381,6.704,1.072c2.955,1.265,7.172,4.219,6.682,7.174
		c-0.262,1.577-1.266,2.296-2.088,2.296c-1.232,0-1.903-0.434-2.164-0.741c0.867-1.034,0.904-2.57,0.016-3.65
		c-1.003-1.22-2.804-1.396-4.024-0.394c-1.672,1.375-2.259,3.64-1.496,5.771c1.03,2.875,4.04,4.732,7.668,4.732
		c3.798,0,7.048-2.977,7.729-7.078C46.561,8.66,40.746,3.801,35.452,1.534"/>
	<path fill="#FFFFFF" d="M80.125,39.021c-3.913,3.934-9.555,6.556-9.555,6.556s-5.642-2.622-9.554-6.556
		c-2.343-2.354-4.537-5.999-4.132-10.155c0.358-3.677,2.751-5.995,5.986-5.995c3.631,0,7.265,3.501,7.681,6.465
		c0.416-2.964,4.088-6.465,7.72-6.465c3.234,0,5.627,2.318,5.985,5.995C84.662,33.022,82.467,36.667,80.125,39.021 M78.271,17.152
		c-2.657,0-5.349,0.93-7.708,2.641c-2.351-1.711-5.037-2.641-7.693-2.641c-6.235,0-11.037,4.59-11.677,11.159
		c-0.505,5.178,1.598,10.551,5.769,14.743c1.951,1.962,4.422,3.852,7.342,5.614c0.891,0.538,1.793,1.046,2.683,1.509
		c1.246,0.648,2.146,1.117,3.583,1.117c1.438,0,2.338-0.469,3.584-1.117c0.889-0.463,1.792-0.971,2.682-1.509
		c2.921-1.763,5.391-3.652,7.343-5.615c4.17-4.191,6.273-9.564,5.768-14.743C89.307,21.742,84.506,17.152,78.271,17.152"/>
	<path fill="#FFFFFF" d="M131.734,46.067c-1.731,0-2.147-0.535-2.479-1.183c-0.672-1.31-0.999-3.799-0.999-7.609
		c0-0.146-0.014-0.287-0.035-0.427c0.02-0.396,0.033-0.798,0.033-1.207V20.089c0-1.579-1.28-2.859-2.859-2.859
		c-1.579,0-2.859,1.28-2.859,2.859v15.553c0,3.359-0.851,6.053-2.462,7.786c-1.626,1.751-4.086,2.64-7.31,2.64
		c-3.224,0-5.684-0.889-7.31-2.64c-1.611-1.733-2.462-4.427-2.462-7.786V20.089c0-1.579-1.28-2.859-2.859-2.859
		s-2.859,1.28-2.859,2.859v15.553c0,4.828,1.38,8.866,3.99,11.678c2.713,2.922,6.69,4.466,11.5,4.466
		c4.74,0,8.668-1.502,11.378-4.342c0.009,0.018,0.017,0.034,0.026,0.053c1.461,2.846,4.006,4.289,7.566,4.289
		c1.579,0,2.859-1.28,2.859-2.859S133.313,46.067,131.734,46.067"/>
	<path fill="#FFFFFF" d="M189.805,46.067c-1.73,0-2.146-0.535-2.479-1.183c-0.672-1.31-1-3.799-1-7.609V14.827
		c0-0.753,0.004-1.466,0.008-2.142c0.026-5.531,0.043-8.871-2.092-11.018c-1.102-1.106-2.621-1.667-4.519-1.667
		c-1.579,0-2.858,1.28-2.858,2.859c0,1.578,1.279,2.858,2.858,2.858c0.25,0,0.405,0.021,0.489,0.038
		c0.433,0.85,0.416,4.058,0.402,6.9c-0.004,0.685-0.007,1.407-0.007,2.17v22.448c0,4.938,0.487,7.994,1.63,10.221
		c1.461,2.846,4.006,4.289,7.566,4.289c1.579,0,2.859-1.28,2.859-2.859S191.384,46.067,189.805,46.067"/>
	<path fill="#FFFFFF" d="M157.013,46.012c-5.305,0-8.116-0.8-9.104-1.154l0.009-13.208c0-2.183-0.127-4.085-0.386-5.74
		c0.504-0.663,2.685-2.969,8.656-2.969c8.262,0,11.207,5.959,11.207,11.535C167.395,41.161,163.027,46.012,157.013,46.012
		 M156.188,17.222c-5.192,0-8.57,1.392-10.689,2.859c-1.868-2.78-4.437-3.258-5.981-3.258c-1.579,0-2.859,1.279-2.859,2.858
		s1.28,2.859,2.859,2.859c0.385,0,1.102,0,1.778,1.838c0.6,1.632,0.904,4.078,0.904,7.269l-0.02,33.94
		c-0.001,1.579,1.278,2.86,2.857,2.861h0.002c1.577,0,2.858-1.279,2.858-2.857l0.01-14.787c1.966,0.476,4.929,0.926,9.106,0.926
		c9.179,0,16.099-7.417,16.099-17.255c0-4.726-1.547-9.024-4.354-12.104C165.686,19.003,161.339,17.222,156.188,17.222"/>
	<path fill="#FFFFFF" d="M213.021,22.898c2.865,0,6.627,0.729,8.279,4.195c0.426,0.89,0.84,2.168,0.405,3.202
		c-0.3,0.717-1.011,1.313-1.948,1.637c-4.3,1.483-12.275,1.194-16.107,1.056c-0.385-0.014-0.735-0.026-1.049-0.036
		c-0.03-0.001-0.062-0.002-0.092-0.002c-0.08,0-0.16,0.004-0.238,0.01C203.475,26.065,208.484,22.898,213.021,22.898
		 M226.191,40.925c-1.374-0.777-3.119-0.293-3.896,1.081c-1.486,2.628-5.512,4.179-10.254,3.946
		c-3.17-0.154-5.994-1.354-7.748-3.289c-0.99-1.096-1.662-2.435-2.008-4.003c0.044,0.003,0.089,0.006,0.135,0.007
		c0.307,0.01,0.648,0.021,1.023,0.036c4.499,0.163,12.872,0.466,18.178-1.364c2.477-0.854,4.43-2.615,5.359-4.832
		c0.691-1.648,1.162-4.352-0.518-7.873c-2.258-4.737-7.156-7.453-13.441-7.453c-4.194,0-8.178,1.633-11.217,4.6
		c-3.322,3.242-5.22,7.775-5.486,13.108c-0.233,4.642,1.061,8.656,3.736,11.612c2.767,3.054,7.033,4.935,11.709,5.163
		c0.404,0.019,0.806,0.028,1.203,0.028c6.461,0,11.875-2.575,14.305-6.871C228.049,43.447,227.565,41.702,226.191,40.925"/>
	<path fill="#FFFFFF" d="M272.75,22.898c2.436,0,6.77,0.524,8.443,4.032c0.424,0.891,0.839,2.167,0.404,3.202
		c-0.301,0.717-1.011,1.313-1.949,1.637c-4.612,1.59-13.639,1.3-17.035,1.191l-0.283-0.009c-0.031-0.001-0.063-0.002-0.094-0.002
		c-0.079,0-0.158,0.004-0.236,0.01C263.202,26.065,268.212,22.898,272.75,22.898 M285.919,40.925
		c-1.374-0.777-3.119-0.293-3.896,1.081c-1.487,2.628-5.515,4.178-10.254,3.946c-3.17-0.154-5.994-1.354-7.748-3.289
		c-0.992-1.096-1.662-2.435-2.008-4.003c0.045,0.003,0.09,0.006,0.135,0.007l0.281,0.009c4.373,0.141,13.475,0.433,19.084-1.5
		c2.475-0.854,4.428-2.616,5.357-4.832c0.691-1.647,1.162-4.352-0.516-7.874c-2.209-4.632-7.168-7.289-13.605-7.289
		c-4.195,0-8.18,1.633-11.217,4.6c-3.323,3.242-5.221,7.775-5.487,13.108c-0.233,4.642,1.06,8.656,3.737,11.612
		c2.766,3.054,7.033,4.935,11.708,5.163c0.405,0.019,0.806,0.028,1.204,0.028c6.459,0,11.875-2.575,14.305-6.871
		C287.777,43.447,287.294,41.702,285.919,40.925"/>
	<path fill="#FFFFFF" d="M251.088,17.181h-7.76v-5.662c0-1.579-1.279-2.859-2.859-2.859c-1.578,0-2.858,1.28-2.858,2.859v5.662
		h-3.351c-1.578,0-2.858,1.28-2.858,2.858c0,1.579,1.28,2.859,2.858,2.859h3.351v14.376c0,4.938,0.487,7.995,1.63,10.221
		c1.46,2.847,4.006,4.289,7.566,4.289c1.578,0,2.858-1.279,2.858-2.858s-1.28-2.859-2.858-2.859c-1.732,0-2.147-0.535-2.479-1.182
		c-0.672-1.311-0.999-3.799-0.999-7.61V22.898h7.76c1.579,0,2.859-1.28,2.859-2.859C253.947,18.461,252.667,17.181,251.088,17.181"
		/>
</g>
</svg>
