<?xml version="1.0" encoding="utf-8"?>
<!-- Generator: Adobe Illustrator 16.0.0, SVG Export Plug-In . SVG Version: 6.00 Build 0)  -->
<!DOCTYPE svg PUBLIC "-//W3C//DTD SVG 1.1//EN" "http://www.w3.org/Graphics/SVG/1.1/DTD/svg11.dtd">
<svg version="1.1" id="Layer_1" xmlns="http://www.w3.org/2000/svg" xmlns:xlink="http://www.w3.org/1999/xlink" x="0px" y="0px"
	 width="124.888px" height="64.281px" viewBox="0 0 124.888 64.281" enable-background="new 0 0 124.888 64.281"
	 xml:space="preserve">
<g>
	<path fill="#FFFFFF" d="M43.961,7.77c0-1.505-0.675-2.7-2.025-3.586c-1.351-0.885-3.443-1.67-6.275-2.353L36.457,0
		c2.213,0.266,4.449,0.609,6.707,1.029c2.258,0.421,4.25,0.809,5.977,1.162c-0.177,0.797-0.332,1.705-0.465,2.723
		c-0.133,1.019-0.199,1.971-0.199,2.855v18.727c1.859-0.088,3.995-0.254,6.408-0.498c2.413-0.243,4.77-0.542,7.072-0.896
		l-0.664,4.184c-0.886-0.044-1.882-0.066-2.988-0.066c-1.107,0-2.236,0-3.387,0c-1.152,0-2.291,0.012-3.42,0.033
		c-1.129,0.022-2.136,0.033-3.021,0.033v15.672c0,1.373-0.033,2.944-0.1,4.715c-0.066,1.771-0.144,3.542-0.232,5.313
		c-0.089,1.771-0.199,3.453-0.332,5.047s-0.289,2.899-0.465,3.918l-2.789,0.332c-0.089-0.753-0.177-1.693-0.266-2.822
		c-0.089-1.129-0.156-2.347-0.199-3.652c-0.044-1.307-0.078-2.645-0.1-4.018c-0.023-1.372-0.033-2.7-0.033-3.984V38.184
		c-1.285,0.576-2.623,1.129-4.018,1.66s-2.8,1.019-4.217,1.461c-1.417,0.443-2.789,0.842-4.117,1.195
		c-1.328,0.354-2.546,0.62-3.652,0.797c-1.55,0.354-2.734,0.288-3.553-0.199c-0.82-0.486-1.339-1.416-1.561-2.789
		c-1.771,0.842-3.642,1.594-5.611,2.258c-1.97,0.664-3.996,1.195-6.076,1.594c-1.992,0.354-3.376,0.145-4.15-0.631
		c-0.775-0.774-1.162-2.18-1.162-4.217V20.254c0-0.885-0.066-1.638-0.199-2.258c-0.133-0.619-0.41-1.15-0.83-1.594
		c-0.421-0.442-1.019-0.841-1.793-1.195C2.247,14.854,1.239,14.499,0,14.145l0.73-1.66c3.364,0.487,6.74,0.742,10.127,0.764
		c3.387,0.022,6.939-0.387,10.658-1.229c1.859,0.222,3.53,0.365,5.014,0.432c1.483,0.066,2.889,0.066,4.217,0
		s2.656-0.21,3.984-0.432c1.328-0.221,2.789-0.531,4.383-0.93l-0.73,3.781c-1.949,0.045-3.918,0.08-5.91,0.103
		s-3.83,0.079-5.512,0.167v22.313c0,0.886,0.254,1.517,0.764,1.893c0.508,0.377,1.139,0.521,1.893,0.432
		c0.93-0.133,2.002-0.32,3.221-0.564c1.217-0.243,2.467-0.531,3.752-0.863c1.284-0.332,2.567-0.686,3.852-1.063
		c1.284-0.376,2.457-0.764,3.52-1.162V7.77z M22.645,19.457c0-0.442-0.023-0.907-0.066-1.395c-0.044-0.486-0.133-0.918-0.266-1.295
		c-0.133-0.376-0.332-0.686-0.598-0.93c-0.266-0.243-0.621-0.365-1.063-0.365c-1.859,0-3.697,0.045-5.512,0.133
		c-1.816,0.089-3.476,0.222-4.98,0.398v22.313c0,0.886,0.254,1.517,0.764,1.893c0.508,0.377,1.139,0.498,1.893,0.365
		c3.364-0.398,6.641-1.173,9.828-2.324V19.457z"/>
	<path fill="#FFFFFF" d="M96.665,33.402c2.523-0.088,4.814-0.166,6.873-0.232s3.708-0.121,4.947-0.166
		c3.055-0.133,5.954-0.32,8.699-0.564c2.745-0.243,5.313-0.542,7.703-0.896l-0.664,4.449c-1.771-0.088-3.951-0.155-6.541-0.201
		s-5.39-0.091-8.4-0.136c-1.239,0-2.833,0.011-4.781,0.034c-1.948,0.022-4.062,0.056-6.342,0.102s-4.615,0.091-7.006,0.135
		c-2.391,0.045-4.671,0.111-6.84,0.199c-2.169,0.089-4.117,0.166-5.844,0.232s-3.033,0.122-3.918,0.166
		c-1.727,0.089-3.443,0.199-5.146,0.332c-1.705,0.133-3.376,0.311-5.014,0.531l-1.727-4.582c2.081,0.222,4.051,0.388,5.91,0.498
		c1.859,0.111,3.829,0.211,5.91,0.299c0.84,0.045,1.915,0.066,3.221,0.066c1.306,0,2.745,0,4.316,0s3.243-0.011,5.014-0.033
		c1.771-0.021,3.542-0.055,5.313-0.1V26.43c-1.948-0.133-3.741-0.498-5.379-1.096s-3.055-1.395-4.25-2.391s-2.136-2.158-2.822-3.486
		s-1.029-2.767-1.029-4.316c0-1.549,0.365-2.999,1.096-4.35c0.73-1.35,1.727-2.534,2.988-3.553c1.262-1.018,2.767-1.837,4.516-2.457
		c1.749-0.619,3.642-0.974,5.678-1.063c-0.089-0.486-0.343-0.896-0.764-1.229s-1.14-0.652-2.158-0.963l0.598-1.262
		c1.106,0.222,2.181,0.41,3.221,0.564c1.04,0.155,2.136,0.344,3.287,0.564c-0.177,0.443-0.354,0.853-0.531,1.229
		C96.621,3,96.466,3.409,96.333,3.852c1.903,0.222,3.663,0.653,5.279,1.295c1.616,0.643,2.999,1.461,4.15,2.457
		s2.059,2.137,2.723,3.42c0.664,1.284,0.996,2.656,0.996,4.117c0,1.506-0.321,2.9-0.963,4.184c-0.642,1.284-1.527,2.413-2.656,3.387
		c-1.129,0.975-2.479,1.782-4.051,2.424c-1.571,0.643-3.287,1.052-5.146,1.229V33.402z M110.013,57.23
		c0.487-0.089,0.952-0.144,1.395-0.166c0.442-0.023,0.841-0.057,1.195-0.101l-0.863,3.731c-1.815-0.133-3.907-0.232-6.275-0.299
		s-4.825-0.1-7.371-0.1s-5.047,0.021-7.504,0.066c-2.457,0.044-4.659,0.11-6.607,0.199c-0.089,1.018-0.222,1.926-0.398,2.723
		l-2.59,0.465c-0.222-0.842-0.388-1.839-0.498-2.99c-0.11-1.154-0.21-2.308-0.299-3.463l-0.863-8.731
		c-0.089-0.845-0.199-1.532-0.332-2.065s-0.343-0.966-0.631-1.3c-0.289-0.333-0.72-0.611-1.295-0.834
		c-0.576-0.222-1.328-0.466-2.258-0.733l0.73-1.73c5.755,0.666,11.754,0.92,17.996,0.765s12.396-0.477,18.461-0.964
		c-0.354,2.531-0.72,5.186-1.096,7.963S110.234,54.965,110.013,57.23z M104.7,14.908c0-1.243-0.266-2.421-0.797-3.532
		c-0.531-1.11-1.262-2.087-2.191-2.932s-2.025-1.511-3.287-2c-1.262-0.488-2.623-0.733-4.084-0.733
		c-1.505,0-2.899,0.245-4.184,0.733c-1.284,0.489-2.401,1.155-3.354,2s-1.693,1.821-2.225,2.932
		c-0.531,1.111-0.797,2.289-0.797,3.532c0,1.333,0.266,2.556,0.797,3.666c0.531,1.111,1.272,2.066,2.225,2.865
		c0.952,0.801,2.069,1.423,3.354,1.867s2.679,0.666,4.184,0.666c1.461,0,2.822-0.222,4.084-0.666s2.357-1.066,3.287-1.867
		c0.93-0.799,1.66-1.754,2.191-2.865C104.435,17.464,104.7,16.241,104.7,14.908z M106.759,45.024
		c-1.417-0.045-3.165-0.078-5.246-0.101c-2.081-0.021-4.217-0.011-6.408,0.034s-4.294,0.101-6.309,0.167s-3.642,0.145-4.881,0.232
		l0.266,10.68v2.068c1.683,0,3.476-0.012,5.379-0.033c1.903-0.022,3.829-0.066,5.777-0.133s3.862-0.134,5.744-0.199
		c1.882-0.067,3.663-0.168,5.346-0.301L106.759,45.024z"/>
</g>
</svg>
