<svg xmlns="http://www.w3.org/2000/svg" viewBox="0 0 248 63.793"><path fill="#FFF" d="M8.513 24.71H0V2.267h21.913v8.51h-13.4M59.945 24.722h-8.51V10.775H38.033v-8.51h21.912M59.945 62.206H38.033v-8.512h13.402V39.746h8.51M21.913 62.206H0v-22.46h8.513v13.948h13.4"/><path fill="#FFF" d="M29.974 26.216l-8.86-8.86h-6.02v6.02l8.862 8.854M29.974 38.252l8.86 8.86h6.02v-6.016L35.99 32.23M35.99 32.23l8.863-8.853v-6.022h-6.02l-8.86 8.86"/><path fill="#FFF" d="M23.956 32.23l-8.86 8.866v6.016h6.02l8.858-8.86M107.437 38.47H90.664v24.104H79.52V5.406h27.917v9.848H90.664v13.33h16.772v9.886zM124.138 10.33c0 1.7-.603 3.152-1.795 4.348-1.2 1.2-2.647 1.797-4.354 1.797-1.704 0-3.154-.597-4.35-1.797-1.198-1.195-1.798-2.646-1.798-4.35 0-1.7.6-3.153 1.797-4.348 1.194-1.195 2.645-1.797 4.35-1.797 1.704 0 3.15.6 4.353 1.797 1.19 1.195 1.795 2.648 1.795 4.35zm-.853 52.242h-10.593V25.325h10.593v37.247zM164.863 62.572H154.31V40.655c0-2.815-.424-4.856-1.274-6.13-.854-1.27-2.217-1.904-4.095-1.904-2.046 0-3.726.96-5.03 2.887-1.313 1.927-1.964 4.58-1.964 7.96v19.106H131.32V25.326h10.625v4.33c1.013-1.802 2.485-3.17 4.423-4.11 1.94-.938 4.225-1.408 6.87-1.408 3.823 0 6.718 1.28 8.68 3.833 1.964 2.557 2.945 6.327 2.945 11.313v23.29zM206.358 62.572h-10.625v-4.26c-1.088 1.805-2.48 3.166-4.17 4.09-1.69.925-3.635 1.39-5.827 1.39-5.11 0-9.234-1.853-12.368-5.55-3.135-3.706-4.7-8.46-4.7-14.258 0-5.8 1.565-10.558 4.7-14.273 3.135-3.714 7.257-5.572 12.368-5.572 2.34 0 4.392.48 6.146 1.43 1.75.948 3.033 2.288 3.852 4.015V0h10.625v62.572zm-10.625-18.588c0-2.937-.788-5.412-2.354-7.424-1.57-2.013-3.514-3.017-5.83-3.017-2.325 0-4.253.997-5.8 3-1.54 1.995-2.31 4.48-2.31 7.438 0 2.965.764 5.438 2.292 7.425 1.53 1.986 3.468 2.98 5.816 2.98 2.342 0 4.293-1.002 5.846-3 1.56-1.995 2.34-4.463 2.34-7.4zM248 62.572h-10.627v-4.26c-1.088 1.805-2.474 3.166-4.16 4.09-1.694.925-3.637 1.39-5.836 1.39-5.108 0-9.23-1.853-12.362-5.55-3.137-3.706-4.705-8.46-4.705-14.258 0-5.8 1.568-10.558 4.705-14.273 3.133-3.714 7.254-5.572 12.362-5.572 2.347 0 4.394.48 6.147 1.43 1.752.948 3.035 2.288 3.85 4.015v-4.256H248v37.245zm-10.627-18.588c0-2.937-.782-5.412-2.35-7.424-1.566-2.013-3.51-3.017-5.833-3.017-2.317 0-4.25.997-5.79 3-1.55 1.995-2.317 4.48-2.317 7.438 0 2.965.762 5.438 2.3 7.425 1.526 1.986 3.466 2.98 5.808 2.98 2.347 0 4.298-1.002 5.855-3 1.552-1.995 2.328-4.463 2.328-7.4z"/></svg>